<svg xmlns="http://www.w3.org/2000/svg" viewBox="0 0 96 48" role="img" aria-label="Alipay">
  <title>Alipay</title>
  <rect width="96" height="48" rx="6" fill="#1677FF"/>
  <path fill="#fff" d="M18.4 14.2h8.6c4.6 0 7.6 2.4 7.6 6.4 0 4.2-3.2 6.7-7.9 6.7h-4.1v6.5h-4.2V14.2zm4.2 3.2v6.7h3.8c2.4 0 3.8-1.2 3.8-3.3s-1.4-3.4-3.8-3.4h-3.8zm18.6-.8c4.9 0 8.2 3.2 8.2 8.1 0 4.9-3.3 8.1-8.2 8.1s-8.2-3.2-8.2-8.1c0-4.9 3.3-8.1 8.2-8.1zm0 3.1c-2.5 0-4 1.9-4 5s1.5 5 4 5 4-1.9 4-5-1.5-5-4-5zm11.8 12.7V16.7h3.9l.1 1.5c1-1.2 2.6-1.8 4.4-1.8 3.7 0 6.1 2.4 6.1 6.3v8.9h-4.1v-8.2c0-2.1-1.1-3.3-3-3.3-1.9 0-3.3 1.3-3.3 3.4v8.1h-4.1z"/>
  <path fill="#fff" opacity=".92" d="M22 36.5c8.8 2.8 18.4 4.4 28.4 4.4 7.6 0 14.8-1 21.5-2.8-4.9-3.6-11.8-6.5-20.2-8.2-1.6 1.4-4.1 3.4-7.1 5.1-4.5-1.8-8.6-4.5-11.8-7.8-.9 2.8-2.6 6.2-5.8 9.3h-5z"/>
</svg>
