<svg xmlns="http://www.w3.org/2000/svg" viewBox="0 0 750 471" role="img" aria-label="Visa">
  <title>Visa</title>
  <path fill="#1A1F71" d="M278.2 334.1 336.7 137.2h59.2L337.2 334.1H278.2zm275.6-191.5c-11.7-4.4-30.1-9.1-53-9.1-58.5 0-99.7 31.2-100 75.9-.4 33 29.5 51.4 52 62.4 23.1 11.3 30.9 18.5 30.8 28.6-.2 15.4-18.5 22.5-35.6 22.5-23.8 0-36.4-3.5-55.9-12.1l-7.7-3.5-8.3 51.5c13.9 6.1 39.5 11.4 66.1 11.7 62.3 0 102.8-30.8 103.3-78.5.2-26.2-15.6-46.1-49.9-62.5-20.8-10.6-33.5-17.7-33.3-28.4 0-9.5 10.7-19.7 33.8-19.7 19.3-.3 33.2 4.1 44.1 8.7l5.3 2.5 8.1-49.5h.2zm157.1-5.4h-45.8c-14.2 0-24.8 4.1-31 19.1l-88.1 210.5h62.1s10.1-28.1 12.4-34.2c6.8 0 66.8.1 75.4.1 1.8 7.9 7.1 34.1 7.1 34.1h54.9L710.9 137.2zm-84.5 135.5c4.9-13.2 23.5-63.9 23.5-63.9-.3.6 4.8-13.2 7.8-21.8l4 19.7s11.3 54.7 13.6 66h-48.9v-.1zM232.4 137.2l-58.1 165.4-6.2-31.1c-10.8-36.7-44.5-76.5-82.2-96.4l53.2 195h62.5l92.9-233H232.4z"/>
  <path fill="#F9A51A" d="M131.9 137.2H36.5l-.8 4.2c66.3 17 110.2 58 128.4 107.4l-18.5-94.1c-3.2-14.4-13.5-16.8-25.7-17.5z"/>
</svg>
